<?xml version="1.0" encoding="utf-8"?>
<!-- Generator: Adobe Illustrator 23.1.0, SVG Export Plug-In . SVG Version: 6.00 Build 0)  -->
<svg version="1.1" id="Layer_1" xmlns="http://www.w3.org/2000/svg" xmlns:xlink="http://www.w3.org/1999/xlink" x="0px" y="0px"
	 viewBox="0 0 454.6 311.1" style="enable-background:new 0 0 454.6 311.1;" xml:space="preserve">
<style type="text/css">
	.st0{fill:none;stroke:#000000;stroke-width:0.4018;stroke-miterlimit:11.3386;}
</style>
<rect x="308.3" y="211.3" class="st0" width="39.7" height="39.7"/>
<rect x="254.3" y="211.3" class="st0" width="39.7" height="39.7"/>
<rect x="200.3" y="211.3" class="st0" width="39.7" height="39.7"/>
<rect x="146.3" y="211.3" class="st0" width="39.7" height="39.7"/>
<rect x="308.3" y="157.3" class="st0" width="39.7" height="39.7"/>
<rect x="254.3" y="157.3" class="st0" width="39.7" height="39.7"/>
<rect x="200.3" y="157.3" class="st0" width="39.7" height="39.7"/>
<rect x="146.3" y="157.3" class="st0" width="39.7" height="39.7"/>
<rect x="308.3" y="103.3" class="st0" width="39.7" height="39.7"/>
<rect x="254.3" y="103.3" class="st0" width="39.7" height="39.7"/>
<rect x="200.3" y="103.3" class="st0" width="39.7" height="39.7"/>
<rect x="146.3" y="103.3" class="st0" width="39.7" height="39.7"/>
<rect x="308.3" y="49.3" class="st0" width="39.7" height="39.7"/>
<rect x="254.3" y="49.3" class="st0" width="39.7" height="39.7"/>
<rect x="200.3" y="49.3" class="st0" width="39.7" height="39.7"/>
<rect x="146.3" y="49.3" class="st0" width="39.7" height="39.7"/>
<polyline class="st0" points="89.7,212 89.7,251 129.4,251 129.4,212 132,212 136,212 136,39 "/>
<polyline class="st0" points="156,39 351,39 351.5,39 352.2,39.1 352.7,39.2 353.3,39.3 353.8,39.4 354.3,39.7 354.8,39.8 
	355.2,40.1 355.7,40.4 356.2,40.7 356.6,41 356.9,41.4 357.3,41.8 357.5,42.2 357.8,42.6 358,43 358.1,43.5 358.2,44 358.3,44.4 
	358.3,44.9 358.3,255.5 358.3,255.9 358.2,256.4 358.1,256.8 358,257.2 357.8,257.7 357.5,258.1 357.3,258.5 356.9,258.9 
	356.6,259.3 356.2,259.6 355.7,259.9 355.2,260.2 354.8,260.4 354.3,260.7 353.8,260.9 353.3,261 352.7,261.1 352.2,261.3 
	351.5,261.3 351,261.3 86.7,261.3 86.1,261.3 85.6,261.3 84.9,261.1 84.4,261 83.9,260.9 83.4,260.7 82.9,260.4 82.4,260.2 
	82,259.9 81.5,259.6 81.2,259.3 80.8,258.9 80.4,258.5 80.2,258.1 79.9,257.7 79.7,257.2 79.6,256.8 79.5,256.4 79.4,255.9 
	79.4,255.5 79.4,212.4 "/>
<line class="st0" x1="79.4" y1="212.4" x2="89.7" y2="212.4"/>
<line class="st0" x1="156" y1="39" x2="136" y2="39"/>
</svg>
