<?xml version="1.0" encoding="utf-8"?>
<!-- Generator: Adobe Illustrator 23.1.0, SVG Export Plug-In . SVG Version: 6.00 Build 0)  -->
<svg version="1.1" id="Layer_1" xmlns="http://www.w3.org/2000/svg" xmlns:xlink="http://www.w3.org/1999/xlink" x="0px" y="0px"
	 viewBox="0 0 454.6 311.1" style="enable-background:new 0 0 454.6 311.1;" xml:space="preserve">
<style type="text/css">
	.st0{fill:none;stroke:#000000;stroke-width:0.4018;stroke-miterlimit:11.3386;}
	.st1{fill:#FFFFFF;}
	.st2{fill:none;stroke:#000000;stroke-width:0.402;stroke-miterlimit:10;}
	.st3{display:none;}
	.st4{display:inline;}
	.st5{display:inline;fill:#FFFFFF;}
</style>
<polyline class="st0" points="73.1,212.1 77.1,212.1 122,212.1 126,212.1 126,35.8 "/>
<polyline class="st0" points="41.8,212.1 41.8,25.8 41.8,25.2 41.9,24.7 42,24.1 42.2,23.6 42.4,23.1 42.7,22.6 43,22.1 43.4,21.7 
	43.9,21.2 44.3,20.8 44.8,20.5 45.3,20.1 45.9,19.8 46.5,19.6 47.1,19.3 47.7,19.2 48.3,19 49.1,18.9 49.7,18.8 50.4,18.8 
	58.1,18.8 "/>
<line class="st0" x1="58.1" y1="18.8" x2="126" y2="18.8"/>
<line class="st0" x1="41.6" y1="212.1" x2="73.3" y2="212.1"/>
<line class="st0" x1="126" y1="18.8" x2="126" y2="35.8"/>
<path class="st1" d="M50.3,26.6c2.4,0,4.3,1.9,4.3,4.3s-1.9,4.3-4.3,4.3c-2.4,0-4.3-1.9-4.3-4.3S47.9,26.6,50.3,26.6z"/>
<path class="st2" d="M50.3,26.6c2.4,0,4.3,1.9,4.3,4.3s-1.9,4.3-4.3,4.3c-2.4,0-4.3-1.9-4.3-4.3S47.9,26.6,50.3,26.6z"/>
<path class="st1" d="M50.3,142.4c2.4,0,4.3,1.9,4.3,4.3c0,2.4-1.9,4.3-4.3,4.3c-2.4,0-4.3-1.9-4.3-4.3S47.9,142.4,50.3,142.4z"/>
<path class="st2" d="M50.3,142.4c2.4,0,4.3,1.9,4.3,4.3c0,2.4-1.9,4.3-4.3,4.3c-2.4,0-4.3-1.9-4.3-4.3S47.9,142.4,50.3,142.4z"/>
<g class="st3">
	<polyline class="st4" points="58.1,19 73.1,19 73.1,18.6 58.1,18.6 	"/>
	<polygon class="st4" points="58.1,18.6 50.4,18.6 49.7,18.6 49.7,18.6 49.1,18.7 48.3,18.8 48.2,18.8 47.6,19 47,19.1 47,19.1 
		46.4,19.4 45.8,19.6 45.8,19.6 45.2,19.9 45.2,19.9 44.7,20.3 44.2,20.6 44.2,20.6 43.7,21.1 43.2,21.6 42.8,22 42.8,22 42.5,22.5 
		42.2,23 42.2,23 42,23.5 41.8,24 41.8,24 41.7,24.7 41.6,25.2 41.6,25.2 41.6,25.8 41.6,276.2 41.6,276.7 41.6,276.7 41.7,277.3 
		41.7,277.3 41.8,277.8 41.8,277.9 42,278.4 42.2,279 42.2,279 42.5,279.4 42.8,279.9 42.8,279.9 43.2,280.4 43.2,280.4 43.7,280.9 
		44.1,281.2 44.1,281.3 44.7,281.7 44.7,281.7 45.2,282 45.2,282 45.8,282.3 46.4,282.6 46.4,282.6 47,282.8 47.6,283 47.6,283 
		48.2,283.1 49,283.3 49.1,283.3 49.7,283.3 50.4,283.3 360.7,283.3 361.3,283.3 362.1,283.3 362.1,283.3 362.7,283.1 363.4,283 
		363.4,283 364,282.8 364.6,282.6 364.7,282.6 365.3,282.3 365.3,282.3 365.8,282 366.3,281.7 366.3,281.7 366.9,281.3 366.9,281.3 
		367.4,280.9 367.4,280.9 367.8,280.4 367.8,280.4 368.2,279.9 368.2,279.9 368.5,279.4 368.8,279 368.9,279 369.1,278.4 
		369.3,277.9 369.3,277.9 369.4,277.3 369.4,277.3 369.5,276.7 369.5,276.7 369.5,276.2 369.5,25.8 369.5,25.2 369.5,25.2 
		369.4,24.7 369.3,24.1 369.3,24 369.1,23.5 368.9,23 368.9,23 368.6,22.5 368.3,22 368.2,22 367.8,21.6 367.4,21.1 367.4,21.1 
		366.9,20.6 366.9,20.6 366.3,20.3 365.8,19.9 365.8,19.9 365.3,19.6 365.3,19.6 364.7,19.4 364.1,19.1 364,19.1 363.4,19 
		362.7,18.8 362.7,18.8 362.1,18.7 362.1,18.7 361.3,18.6 361.3,18.6 360.7,18.6 125.8,18.6 125.8,35.8 125.8,41.2 337.9,41.2 
		345.1,41.2 346.9,41.2 346.9,43 347.3,43 347.3,40.8 345.1,40.8 337.9,40.8 126.2,40.8 126.2,35.8 126.2,19 360.7,19 361.3,19 
		362.1,19.1 362.6,19.2 363.3,19.4 363.3,19.4 363.9,19.5 364.5,19.8 364.5,19.8 365.1,20 365.6,20.3 366.1,20.7 366.1,20.7 
		366.7,21 367.1,21.3 367.5,21.8 367.5,21.8 367.9,22.2 368.2,22.7 368.5,23.2 368.7,23.7 368.9,24.2 369,24.7 369,24.7 369.1,25.2 
		369.1,25.8 369.1,276.2 369.1,276.7 369,277.3 368.9,277.7 368.7,278.2 368.7,278.2 368.5,278.8 368.2,279.2 368.2,279.2 
		367.9,279.7 367.5,280.2 367.1,280.6 366.7,280.9 366.1,281.3 365.6,281.6 365.1,281.9 364.5,282.2 363.9,282.4 363.3,282.6 
		362.7,282.7 362.6,282.7 362,282.9 361.3,282.9 360.7,282.9 50.4,282.9 49.7,282.9 49.1,282.9 48.3,282.7 48.3,282.7 47.7,282.6 
		47.1,282.4 46.6,282.2 46,281.9 45.4,281.6 44.9,281.3 44.4,281 44,280.6 44,280.6 43.5,280.2 43.1,279.7 42.9,279.2 42.8,279.2 
		42.6,278.8 42.4,278.2 42.4,278.2 42.2,277.7 42.1,277.3 42,276.7 42,276.2 42,25.8 42,25.2 42.1,24.7 42.1,24.7 42.2,24.2 
		42.4,23.7 42.6,23.2 42.9,22.7 43.1,22.2 43.5,21.8 44,21.3 44.4,21 44.9,20.7 44.9,20.7 45.4,20.3 46,20 46.5,19.8 46.6,19.8 
		47.1,19.5 47.7,19.4 47.7,19.4 48.3,19.2 49.1,19.1 49.1,19.1 49.7,19 50.4,19 58.1,19 	"/>
	<polyline class="st4" points="72.9,18.8 72.9,35.8 73.3,35.8 73.3,18.8 	"/>
	<polygon class="st4" points="72.9,35.8 72.9,42.8 66,42.8 63.8,42.8 63.8,48.7 63.8,253.3 63.8,258.9 64.2,258.9 64.2,253.3 
		64.2,48.7 64.2,43.2 66,43.2 73.3,43.2 73.3,35.8 	"/>
	<path class="st5" d="M50.3,26.6c2.4,0,4.3,1.9,4.3,4.3s-1.9,4.3-4.3,4.3c-2.4,0-4.3-1.9-4.3-4.3S47.9,26.6,50.3,26.6z"/>
	<path class="st4" d="M50.3,26.6v0.2c2.3,0,4.1,1.8,4.1,4.1S52.6,35,50.3,35s-4.1-1.8-4.1-4.1s1.8-4.1,4.1-4.1V26.6v-0.2
		c-1.3,0-2.4,0.5-3.2,1.3s-1.3,1.9-1.3,3.2s0.5,2.4,1.3,3.2s1.9,1.3,3.2,1.3s2.4-0.5,3.2-1.3s1.3-1.9,1.3-3.2s-0.5-2.4-1.3-3.2
		c-0.8-0.8-1.9-1.3-3.2-1.3V26.6z"/>
	<path class="st5" d="M50.3,270.3c2.4,0,4.3,1.9,4.3,4.3s-1.9,4.3-4.3,4.3c-2.4,0-4.3-1.9-4.3-4.3C46,272.2,47.9,270.3,50.3,270.3z"
		/>
	<path class="st4" d="M50.3,270.3v0.2c2.3,0,4.1,1.8,4.1,4.1c0,2.3-1.8,4.1-4.1,4.1s-4.1-1.8-4.1-4.1c0-2.3,1.8-4.1,4.1-4.1V270.3
		v-0.2c-1.3,0-2.4,0.5-3.2,1.3s-1.3,1.9-1.3,3.2c0,1.3,0.5,2.4,1.3,3.2c0.8,0.8,1.9,1.3,3.2,1.3s2.4-0.5,3.2-1.3s1.3-1.9,1.3-3.2
		c0-1.3-0.5-2.4-1.3-3.2c-0.8-0.8-1.9-1.3-3.2-1.3V270.3z"/>
	<path class="st5" d="M50.3,142.4c2.4,0,4.3,1.9,4.3,4.3s-1.9,4.3-4.3,4.3c-2.4,0-4.3-1.9-4.3-4.3S47.9,142.4,50.3,142.4z"/>
	<path class="st4" d="M50.3,142.4v0.2c2.3,0,4.1,1.8,4.1,4.1s-1.8,4.1-4.1,4.1s-4.1-1.8-4.1-4.1s1.8-4.1,4.1-4.1V142.4v-0.2
		c-1.3,0-2.4,0.5-3.2,1.3s-1.3,1.9-1.3,3.2s0.5,2.4,1.3,3.2s1.9,1.3,3.2,1.3s2.4-0.5,3.2-1.3s1.3-1.9,1.3-3.2s-0.5-2.4-1.3-3.2
		s-1.9-1.3-3.2-1.3V142.4z"/>
	<path class="st5" d="M360.8,24.8c2.4,0,4.3,1.9,4.3,4.3s-1.9,4.3-4.3,4.3s-4.3-1.9-4.3-4.3S358.4,24.8,360.8,24.8z"/>
	<path class="st4" d="M360.8,24.8V25c2.3,0,4.1,1.8,4.1,4.1s-1.8,4.1-4.1,4.1c-2.3,0-4.1-1.8-4.1-4.1s1.8-4.1,4.1-4.1V24.8v-0.2
		c-1.3,0-2.4,0.5-3.2,1.3c-0.8,0.8-1.3,1.9-1.3,3.2c0,1.3,0.5,2.4,1.3,3.2c0.8,0.8,1.9,1.3,3.2,1.3c1.3,0,2.4-0.5,3.2-1.3
		c0.8-0.8,1.3-1.9,1.3-3.2c0-1.3-0.5-2.4-1.3-3.2c-0.8-0.8-1.9-1.3-3.2-1.3V24.8z"/>
	<circle class="st5" cx="360.8" cy="272.8" r="4.3"/>
	<path class="st4" d="M360.8,268.5v0.2c1.1,0,2.2,0.5,2.9,1.2c0.7,0.7,1.2,1.8,1.2,2.9s-0.5,2.2-1.2,2.9c-0.7,0.7-1.8,1.2-2.9,1.2
		s-2.2-0.5-2.9-1.2c-0.7-0.7-1.2-1.8-1.2-2.9s0.5-2.2,1.2-2.9c0.7-0.7,1.8-1.2,2.9-1.2V268.5v-0.2c-2.5,0-4.5,2-4.5,4.5
		s2,4.5,4.5,4.5s4.5-2,4.5-4.5s-2-4.5-4.5-4.5V268.5z"/>
	<path class="st5" d="M360.8,140.6c2.4,0,4.3,1.9,4.3,4.3s-1.9,4.3-4.3,4.3s-4.3-1.9-4.3-4.3S358.4,140.6,360.8,140.6z"/>
	<path class="st4" d="M360.8,140.6v0.2c2.3,0,4.1,1.8,4.1,4.1s-1.8,4.1-4.1,4.1c-2.3,0-4.1-1.8-4.1-4.1s1.8-4.1,4.1-4.1V140.6v-0.2
		c-1.3,0-2.4,0.5-3.2,1.3c-0.8,0.8-1.3,1.9-1.3,3.2s0.5,2.4,1.3,3.2s1.9,1.3,3.2,1.3c1.3,0,2.4-0.5,3.2-1.3c0.8-0.8,1.3-1.9,1.3-3.2
		s-0.5-2.4-1.3-3.2s-1.9-1.3-3.2-1.3V140.6z"/>
	<path class="st5" d="M210.1,24.8c2.4,0,4.3,1.9,4.3,4.3s-1.9,4.3-4.3,4.3s-4.3-1.9-4.3-4.3S207.7,24.8,210.1,24.8z"/>
	<path class="st4" d="M210.1,24.8V25c2.3,0,4.1,1.8,4.1,4.1s-1.8,4.1-4.1,4.1s-4.1-1.8-4.1-4.1s1.8-4.1,4.1-4.1V24.8v-0.2
		c-1.3,0-2.4,0.5-3.2,1.3s-1.3,1.9-1.3,3.2c0,1.3,0.5,2.4,1.3,3.2c0.8,0.8,1.9,1.3,3.2,1.3s2.4-0.5,3.2-1.3s1.3-1.9,1.3-3.2
		c0-1.3-0.5-2.4-1.3-3.2c-0.8-0.8-1.9-1.3-3.2-1.3V24.8z"/>
	<path class="st5" d="M210.1,270.3c2.4,0,4.3,1.9,4.3,4.3s-1.9,4.3-4.3,4.3s-4.3-1.9-4.3-4.3C205.8,272.2,207.7,270.3,210.1,270.3z"
		/>
	<path class="st4" d="M210.1,270.3v0.2c2.3,0,4.1,1.8,4.1,4.1c0,2.3-1.8,4.1-4.1,4.1s-4.1-1.8-4.1-4.1c0-2.3,1.8-4.1,4.1-4.1V270.3
		v-0.2c-1.3,0-2.4,0.5-3.2,1.3s-1.3,1.9-1.3,3.2c0,1.3,0.5,2.4,1.3,3.2c0.8,0.8,1.9,1.3,3.2,1.3s2.4-0.5,3.2-1.3s1.3-1.9,1.3-3.2
		c0-1.3-0.5-2.4-1.3-3.2c-0.8-0.8-1.9-1.3-3.2-1.3V270.3z"/>
	<polygon class="st4" points="347.3,258.9 347.3,246 347.3,48.7 347.3,43 346.9,43 346.9,48.7 346.9,246 346.9,258.9 	"/>
	<polyline class="st4" points="337.6,261.1 345.1,261.1 345.1,260.7 337.6,260.7 	"/>
	<polygon class="st4" points="337.9,260.7 336.4,260.7 73.3,260.7 66,260.7 64.2,260.7 64.2,258.9 63.8,258.9 63.8,261.1 66,261.1 
		73.3,261.1 336.4,261.1 337.9,261.1 	"/>
	<polygon class="st4" points="346.9,258.9 346.9,260.7 345.1,260.7 345.1,261.1 347.3,261.1 347.3,258.9 	"/>
</g>
</svg>
