<?xml version="1.0" encoding="utf-8"?>
<!-- Generator: Adobe Illustrator 23.1.0, SVG Export Plug-In . SVG Version: 6.00 Build 0)  -->
<svg version="1.1" id="Layer_1" xmlns="http://www.w3.org/2000/svg" xmlns:xlink="http://www.w3.org/1999/xlink" x="0px" y="0px"
	 viewBox="0 0 454.6 311.1" style="enable-background:new 0 0 454.6 311.1;" xml:space="preserve">
<style type="text/css">
	.st0{fill:#231F20;}
	.st1{fill:#FFFFFF;}
</style>
<g>
	<polyline points="138.4,48.4 138.4,55.6 138.8,55.6 138.8,48.4 	"/>
	<polyline points="129.5,224.5 107.5,224.5 107.5,38.4 107.5,37.8 107.6,37.4 107.7,36.8 107.9,36.3 108.1,35.8 108.3,35.3 
		108.6,34.8 109,34.5 109.5,34 109.9,33.6 110.4,33.3 110.9,32.9 111.4,32.6 112,32.4 112.6,32.1 113.2,32 113.8,31.8 114.6,31.7 
		115.2,31.6 115.9,31.6 123.6,31.6 123.6,31.2 115.9,31.2 115.2,31.2 114.5,31.3 113.7,31.4 113.1,31.6 112.5,31.7 111.9,32 
		111.3,32.2 110.7,32.5 110.7,32.6 110.2,33 109.7,33.3 109.6,33.3 109.2,33.7 108.7,34.2 108.3,34.6 108,35.1 107.7,35.6 
		107.5,36.2 107.3,36.7 107.2,37.3 107.1,37.8 107.1,38.4 107.1,224.9 129.5,224.9 	"/>
	<polyline class="st0" points="129.3,55.9 129.3,224.7 129.7,224.7 129.7,55.9 	"/>
	<polyline points="131.3,31.6 138.6,31.6 138.6,31.2 131.3,31.2 	"/>
	<polyline points="123.6,31.6 131.3,31.6 131.3,31.2 123.6,31.2 	"/>
	<polyline points="138.4,31.4 138.4,48.4 138.8,48.4 138.8,31.4 	"/>
	<path class="st1" d="M115.8,39.2c2.4,0,4.3,1.9,4.3,4.3s-1.9,4.3-4.3,4.3c-2.4,0-4.3-1.9-4.3-4.3S113.4,39.2,115.8,39.2z"/>
	<path d="M115.8,39.2v0.2c2.3,0,4.1,1.8,4.1,4.1s-1.8,4.1-4.1,4.1c-2.3,0-4.1-1.8-4.1-4.1s1.8-4.1,4.1-4.1V39.2V39
		c-1.3,0-2.4,0.5-3.2,1.3c-0.8,0.8-1.3,1.9-1.3,3.2s0.5,2.4,1.3,3.2c0.8,0.8,1.9,1.3,3.2,1.3c1.3,0,2.4-0.5,3.2-1.3
		c0.8-0.8,1.3-1.9,1.3-3.2s-0.5-2.4-1.3-3.2c-0.8-0.8-1.9-1.3-3.2-1.3V39.2z"/>
	<path class="st1" d="M115.8,155c2.4,0,4.3,1.9,4.3,4.3c0,2.4-1.9,4.3-4.3,4.3c-2.4,0-4.3-1.9-4.3-4.3
		C111.5,156.9,113.4,155,115.8,155z"/>
	<path d="M115.8,155v0.2c2.3,0,4.1,1.8,4.1,4.1s-1.8,4.1-4.1,4.1c-2.3,0-4.1-1.8-4.1-4.1s1.8-4.1,4.1-4.1V155v-0.2
		c-1.3,0-2.4,0.5-3.2,1.3c-0.8,0.8-1.3,1.9-1.3,3.2s0.5,2.4,1.3,3.2c0.8,0.8,1.9,1.3,3.2,1.3c1.3,0,2.4-0.5,3.2-1.3s1.3-1.9,1.3-3.2
		s-0.5-2.4-1.3-3.2c-0.8-0.8-1.9-1.3-3.2-1.3V155z"/>
	<polyline points="129.5,56.1 138.6,56.1 138.6,55.7 129.5,55.7 	"/>
	<polyline points="138.4,55.2 138.4,55.9 138.8,55.9 138.8,55.2 	"/>
</g>
</svg>
