<?xml version="1.0" encoding="utf-8"?>
<!-- Generator: Adobe Illustrator 23.1.0, SVG Export Plug-In . SVG Version: 6.00 Build 0)  -->
<svg version="1.1" id="Layer_1" xmlns="http://www.w3.org/2000/svg" xmlns:xlink="http://www.w3.org/1999/xlink" x="0px" y="0px"
	 viewBox="0 0 454.6 311.1" style="enable-background:new 0 0 454.6 311.1;" xml:space="preserve">
<style type="text/css">
	.st0{fill:none;stroke:#000000;stroke-width:0.4018;stroke-miterlimit:11.3386;}
	.st1{fill:#FFFFFF;stroke:#000000;stroke-width:0.402;stroke-miterlimit:10;}
</style>
<polyline class="st0" points="83.5,35 354.7,35 355.2,35 355.8,35.1 356.4,35.2 356.9,35.3 357.5,35.5 358.1,35.7 358.6,35.9 
	359.1,36.2 359.6,36.5 360,36.8 360.4,37.1 360.9,37.5 361.2,37.9 361.5,38.3 361.7,38.8 361.9,39.2 362.1,39.7 362.2,40.1 
	362.3,40.6 362.3,41.1 362.3,259.3 362.3,259.8 362.2,260.2 362.1,260.7 361.9,261.2 361.7,261.6 361.5,262 361.2,262.4 
	360.9,262.8 360.4,263.2 360,263.6 359.6,263.9 359.1,264.2 358.6,264.4 358.1,264.7 357.5,264.9 356.9,265 356.4,265.2 
	355.8,265.3 355.2,265.3 354.7,265.3 76.5,265.3 75.8,265.3 75.2,265.3 74.6,265.2 74.2,265 73.6,264.9 73,264.7 72.5,264.4 
	72,264.2 71.5,263.9 71.1,263.6 70.7,263.2 70.3,262.8 70,262.4 69.6,262 69.3,261.6 69.1,261.2 69,260.7 68.9,260.2 68.8,259.8 
	68.8,259.3 68.8,41.1 68.8,40.6 68.9,40.1 69,39.7 69.1,39.2 69.3,38.8 69.6,38.3 70,37.9 70.3,37.5 70.7,37.1 71.1,36.8 71.5,36.5 
	72,36.2 72.5,35.9 73,35.7 73.6,35.5 74.2,35.3 74.6,35.2 75.2,35.1 75.8,35 76.5,35 83.5,35 "/>
<polyline class="st0" points="68.1,18 370.7,18 371.3,18 372.1,18.1 372.7,18.2 373.4,18.4 374,18.5 374.6,18.8 375.2,19 
	375.7,19.3 376.2,19.7 376.8,20 377.3,20.4 377.7,20.9 378.1,21.3 378.4,21.8 378.7,22.3 378.9,22.8 379.1,23.3 379.2,23.9 
	379.3,24.4 379.3,25 379.3,275.4 379.3,275.9 379.2,276.5 379.1,277 378.9,277.5 378.7,278.1 378.4,278.5 378.1,279 377.7,279.5 
	377.3,279.9 376.8,280.3 376.2,280.7 375.7,281 375.2,281.3 374.6,281.6 374,281.8 373.4,282 372.7,282.1 372.1,282.3 371.3,282.3 
	370.7,282.3 60.4,282.3 59.7,282.3 59.1,282.3 58.3,282.1 57.7,282 57.1,281.8 56.5,281.6 55.9,281.3 55.3,281 54.8,280.7 
	54.3,280.3 53.9,279.9 53.4,279.5 53,279 52.7,278.5 52.4,278.1 52.2,277.5 52,277 51.9,276.5 51.8,275.9 51.8,275.4 51.8,25 
	51.8,24.4 51.9,23.9 52,23.3 52.2,22.8 52.4,22.3 52.7,21.8 53,21.3 53.4,20.9 53.9,20.4 54.3,20 54.8,19.7 55.3,19.3 55.9,19 
	56.5,18.8 57.1,18.5 57.7,18.4 58.3,18.2 59.1,18.1 59.7,18 60.4,18 68.1,18 "/>
<circle class="st1" cx="60.3" cy="30.1" r="4.3"/>
<circle class="st1" cx="60.3" cy="273.8" r="4.3"/>
<circle class="st1" cx="60.3" cy="145.9" r="4.3"/>
<circle class="st1" cx="370.8" cy="28.3" r="4.3"/>
<circle class="st1" cx="370.8" cy="272" r="4.3"/>
<circle class="st1" cx="370.8" cy="144.1" r="4.3"/>
<circle class="st1" cx="220.1" cy="28.3" r="4.3"/>
<circle class="st1" cx="220.1" cy="273.8" r="4.3"/>
</svg>
