<?xml version="1.0" encoding="utf-8"?>
<!-- Generator: Adobe Illustrator 23.1.0, SVG Export Plug-In . SVG Version: 6.00 Build 0)  -->
<svg version="1.1" id="Layer_1" xmlns="http://www.w3.org/2000/svg" xmlns:xlink="http://www.w3.org/1999/xlink" x="0px" y="0px"
	 viewBox="0 0 454.6 311.1" style="enable-background:new 0 0 454.6 311.1;" xml:space="preserve">
<style type="text/css">
	.st0{fill:#FFFFFF;}
	.st1{fill:none;stroke:#000000;stroke-width:0.4018;stroke-miterlimit:11.3386;}
</style>
<polyline points="68.1,18.2 135.8,18.2 135.8,17.8 68.1,17.8 "/>
<polyline points="136.2,18.2 370.7,18.2 371.3,18.2 372.1,18.3 372.7,18.4 373.3,18.6 373.4,18.6 373.9,18.7 374.5,19 374.5,19 
	375.1,19.2 375.6,19.5 376.1,19.9 376.1,19.9 376.7,20.2 377.2,20.5 377.5,21 377.6,21 377.9,21.4 378.2,21.9 378.5,22.4 
	378.7,22.9 378.9,23.4 379,23.9 379,23.9 379.1,24.4 379.1,25 379.1,275.4 379.1,275.9 379,276.5 378.9,276.9 378.7,277.4 
	378.7,277.4 378.5,278 378.2,278.4 378.2,278.4 377.9,278.9 377.6,279.4 377.2,279.8 376.7,280.1 376.1,280.5 375.6,280.8 
	375.1,281.1 374.5,281.4 373.9,281.6 373.4,281.8 372.7,281.9 372.7,281.9 372.1,282.1 371.3,282.1 370.7,282.1 60.4,282.1 
	59.7,282.1 59.1,282.1 58.3,281.9 58.3,281.9 57.7,281.8 57.2,281.6 56.6,281.4 56,281.1 55.4,280.8 54.9,280.5 54.4,280.1 
	54,279.8 54,279.8 53.5,279.4 53.2,278.9 52.9,278.4 52.9,278.4 52.6,278 52.4,277.4 52.4,277.4 52.2,276.9 52.1,276.5 52,275.9 
	52,275.4 52,25 52,24.4 52.1,23.9 52.1,23.9 52.2,23.4 52.4,22.9 52.6,22.4 52.9,21.9 53.2,21.4 53.5,21 54,20.5 54.4,20.2 
	54.9,19.9 54.9,19.9 55.4,19.5 56,19.2 56.6,19 56.6,19 57.2,18.7 57.7,18.6 57.7,18.6 58.3,18.4 59.1,18.3 59.1,18.3 59.7,18.2 
	60.4,18.2 68.1,18.2 68.1,17.8 60.4,17.8 59.7,17.8 59.7,17.8 59.1,17.9 58.3,18 58.3,18 57.7,18.2 57.1,18.3 57,18.3 56.4,18.6 
	55.8,18.8 55.8,18.8 55.2,19.1 55.2,19.1 54.7,19.5 54.2,19.8 54.2,19.8 53.8,20.3 53.3,20.8 52.9,21.2 52.8,21.2 52.5,21.7 
	52.2,22.2 52.2,22.2 52,22.7 51.8,23.2 51.8,23.2 51.7,23.9 51.6,24.4 51.6,24.4 51.6,25 51.6,275.4 51.6,275.9 51.6,275.9 
	51.7,276.5 51.7,276.5 51.8,277 51.8,277.1 52,277.6 52.2,278.2 52.2,278.2 52.5,278.6 52.8,279.1 52.8,279.1 53.2,279.6 
	53.3,279.6 53.8,280.1 54.2,280.4 54.2,280.4 54.7,280.9 54.7,280.9 55.2,281.2 55.2,281.2 55.8,281.5 56.4,281.8 56.4,281.8 
	57,282 57.6,282.2 57.7,282.2 58.3,282.3 59.1,282.5 59.1,282.5 59.7,282.5 60.4,282.5 370.7,282.5 371.3,282.5 372.1,282.5 
	372.1,282.5 372.7,282.3 373.4,282.2 373.4,282.2 374.1,282 374.7,281.8 374.7,281.8 375.3,281.5 375.3,281.5 375.8,281.2 
	376.3,280.9 376.3,280.9 376.9,280.5 376.9,280.5 377.4,280.1 377.4,280.1 377.8,279.6 377.9,279.6 378.3,279.1 378.3,279.1 
	378.6,278.6 378.9,278.2 378.9,278.2 379.1,277.6 379.3,277.1 379.3,277.1 379.4,276.5 379.4,276.5 379.5,275.9 379.5,275.9 
	379.5,275.4 379.5,25 379.5,24.4 379.5,24.4 379.4,23.9 379.3,23.3 379.3,23.2 379.1,22.7 378.9,22.2 378.9,22.2 378.6,21.7 
	378.3,21.2 378.3,21.2 377.9,20.8 377.5,20.3 377.4,20.3 376.9,19.8 376.9,19.8 376.3,19.5 375.8,19.1 375.8,19.1 375.3,18.8 
	375.3,18.8 374.7,18.6 374.1,18.3 374.1,18.3 373.4,18.2 372.8,18 372.7,18 372.1,17.9 372.1,17.9 371.3,17.8 371.3,17.8 
	370.7,17.8 135.8,17.8 "/>
<polyline points="135.6,40.4 347.9,40.4 355.1,40.4 356.9,40.4 356.9,42.2 357.3,42.2 357.3,40 355.1,40 347.9,40 136,40 "/>
<path class="st0" d="M60.3,25.8c2.4,0,4.3,1.9,4.3,4.3s-1.9,4.3-4.3,4.3c-2.4,0-4.3-1.9-4.3-4.3S57.9,25.8,60.3,25.8z"/>
<path d="M60.3,25.8V26c2.3,0,4.1,1.8,4.1,4.1s-1.8,4.1-4.1,4.1s-4.1-1.8-4.1-4.1S58,26,60.3,26L60.3,25.8l0-0.2
	c-1.3,0-2.4,0.5-3.2,1.3s-1.3,1.9-1.3,3.2c0,1.3,0.5,2.4,1.3,3.2s1.9,1.3,3.2,1.3s2.4-0.5,3.2-1.3s1.3-1.9,1.3-3.2
	c0-1.3-0.5-2.4-1.3-3.2c-0.8-0.8-1.9-1.3-3.2-1.3C60.3,25.6,60.3,25.8,60.3,25.8z"/>
<path class="st0" d="M60.3,269.5c2.4,0,4.3,1.9,4.3,4.3s-1.9,4.3-4.3,4.3c-2.4,0-4.3-1.9-4.3-4.3S57.9,269.5,60.3,269.5z"/>
<path d="M60.3,269.5v0.2c2.3,0,4.1,1.8,4.1,4.1c0,2.3-1.8,4.1-4.1,4.1s-4.1-1.8-4.1-4.1c0-2.3,1.8-4.1,4.1-4.1L60.3,269.5l0-0.2
	c-1.3,0-2.4,0.5-3.2,1.3s-1.3,1.9-1.3,3.2c0,1.3,0.5,2.4,1.3,3.2c0.8,0.8,1.9,1.3,3.2,1.3s2.4-0.5,3.2-1.3s1.3-1.9,1.3-3.2
	c0-1.3-0.5-2.4-1.3-3.2c-0.8-0.8-1.9-1.3-3.2-1.3C60.3,269.3,60.3,269.5,60.3,269.5z"/>
<path class="st0" d="M60.3,141.6c2.4,0,4.3,1.9,4.3,4.3s-1.9,4.3-4.3,4.3c-2.4,0-4.3-1.9-4.3-4.3S57.9,141.6,60.3,141.6z"/>
<path d="M60.3,141.6v0.2c2.3,0,4.1,1.8,4.1,4.1s-1.8,4.1-4.1,4.1s-4.1-1.8-4.1-4.1s1.8-4.1,4.1-4.1L60.3,141.6l0-0.2
	c-1.3,0-2.4,0.5-3.2,1.3s-1.3,1.9-1.3,3.2s0.5,2.4,1.3,3.2s1.9,1.3,3.2,1.3s2.4-0.5,3.2-1.3s1.3-1.9,1.3-3.2s-0.5-2.4-1.3-3.2
	s-1.9-1.3-3.2-1.3C60.3,141.4,60.3,141.6,60.3,141.6z"/>
<path class="st0" d="M370.8,24c2.4,0,4.3,1.9,4.3,4.3s-1.9,4.3-4.3,4.3s-4.3-1.9-4.3-4.3S368.4,24,370.8,24z"/>
<path d="M370.8,24v0.2c2.3,0,4.1,1.8,4.1,4.1s-1.8,4.1-4.1,4.1c-2.3,0-4.1-1.8-4.1-4.1s1.8-4.1,4.1-4.1V24v-0.2
	c-1.3,0-2.4,0.5-3.2,1.3c-0.8,0.8-1.3,1.9-1.3,3.2c0,1.3,0.5,2.4,1.3,3.2c0.8,0.8,1.9,1.3,3.2,1.3c1.3,0,2.4-0.5,3.2-1.3
	c0.8-0.8,1.3-1.9,1.3-3.2c0-1.3-0.5-2.4-1.3-3.2c-0.8-0.8-1.9-1.3-3.2-1.3V24z"/>
<circle class="st0" cx="370.8" cy="272" r="4.3"/>
<path d="M370.8,267.7v0.2c1.1,0,2.2,0.5,2.9,1.2c0.7,0.7,1.2,1.8,1.2,2.9s-0.5,2.2-1.2,2.9c-0.7,0.7-1.8,1.2-2.9,1.2
	s-2.2-0.5-2.9-1.2c-0.7-0.7-1.2-1.8-1.2-2.9s0.5-2.2,1.2-2.9c0.7-0.7,1.8-1.2,2.9-1.2V267.7v-0.2c-2.5,0-4.5,2-4.5,4.5
	s2,4.5,4.5,4.5s4.5-2,4.5-4.5s-2-4.5-4.5-4.5V267.7z"/>
<path class="st0" d="M370.8,139.8c2.4,0,4.3,1.9,4.3,4.3s-1.9,4.3-4.3,4.3s-4.3-1.9-4.3-4.3S368.4,139.8,370.8,139.8z"/>
<path d="M370.8,139.8v0.2c2.3,0,4.1,1.8,4.1,4.1s-1.8,4.1-4.1,4.1c-2.3,0-4.1-1.8-4.1-4.1s1.8-4.1,4.1-4.1V139.8v-0.2
	c-1.3,0-2.4,0.5-3.2,1.3c-0.8,0.8-1.3,1.9-1.3,3.2s0.5,2.4,1.3,3.2s1.9,1.3,3.2,1.3c1.3,0,2.4-0.5,3.2-1.3c0.8-0.8,1.3-1.9,1.3-3.2
	s-0.5-2.4-1.3-3.2s-1.9-1.3-3.2-1.3V139.8z"/>
<path class="st0" d="M220.1,24c2.4,0,4.3,1.9,4.3,4.3s-1.9,4.3-4.3,4.3s-4.3-1.9-4.3-4.3S217.7,24,220.1,24z"/>
<path d="M220.1,24v0.2c2.3,0,4.1,1.8,4.1,4.1s-1.8,4.1-4.1,4.1s-4.1-1.8-4.1-4.1s1.8-4.1,4.1-4.1V24v-0.2c-1.3,0-2.4,0.5-3.2,1.3
	s-1.3,1.9-1.3,3.2c0,1.3,0.5,2.4,1.3,3.2c0.8,0.8,1.9,1.3,3.2,1.3s2.4-0.5,3.2-1.3s1.3-1.9,1.3-3.2c0-1.3-0.5-2.4-1.3-3.2
	c-0.8-0.8-1.9-1.3-3.2-1.3V24z"/>
<path class="st0" d="M220.1,269.5c2.4,0,4.3,1.9,4.3,4.3s-1.9,4.3-4.3,4.3s-4.3-1.9-4.3-4.3S217.7,269.5,220.1,269.5z"/>
<path d="M220.1,269.5v0.2c2.3,0,4.1,1.8,4.1,4.1c0,2.3-1.8,4.1-4.1,4.1s-4.1-1.8-4.1-4.1c0-2.3,1.8-4.1,4.1-4.1V269.5v-0.2
	c-1.3,0-2.4,0.5-3.2,1.3s-1.3,1.9-1.3,3.2c0,1.3,0.5,2.4,1.3,3.2c0.8,0.8,1.9,1.3,3.2,1.3s2.4-0.5,3.2-1.3s1.3-1.9,1.3-3.2
	c0-1.3-0.5-2.4-1.3-3.2c-0.8-0.8-1.9-1.3-3.2-1.3V269.5z"/>
<polygon points="357.3,258.1 357.3,245.2 357.3,47.9 357.3,42.2 356.9,42.2 356.9,47.9 356.9,245.2 356.9,258.1 "/>
<polyline points="347.6,260.3 355.1,260.3 355.1,259.9 347.6,259.9 "/>
<polygon points="356.9,258.1 356.9,259.9 355.1,259.9 355.1,260.3 357.3,260.3 357.3,258.1 "/>
<path class="st1" d="M135.8,40c0,0,0,218.8,0,220.1c0,0,211.9,0,211.9,0"/>
<circle class="st1" cx="109.4" cy="230.9" r="22.8"/>
</svg>
