<?xml version="1.0" encoding="utf-8"?>
<!-- Generator: Adobe Illustrator 23.1.0, SVG Export Plug-In . SVG Version: 6.00 Build 0)  -->
<svg version="1.1" id="Layer_1" xmlns="http://www.w3.org/2000/svg" xmlns:xlink="http://www.w3.org/1999/xlink" x="0px" y="0px"
	 viewBox="0 0 454.6 311.1" style="enable-background:new 0 0 454.6 311.1;" xml:space="preserve">
<style type="text/css">
	.st0{fill:none;stroke:#000000;stroke-width:0.4018;stroke-miterlimit:11.3386;}
	.st1{fill:#FFFFFF;}
	.st2{fill:none;stroke:#000000;stroke-width:0.402;stroke-miterlimit:10;}
</style>
<rect x="308.3" y="211.3" class="st0" width="39.7" height="39.7"/>
<rect x="254.3" y="211.3" class="st0" width="39.7" height="39.7"/>
<rect x="200.3" y="211.3" class="st0" width="39.7" height="39.7"/>
<rect x="146.3" y="211.3" class="st0" width="39.7" height="39.7"/>
<rect x="308.3" y="157.3" class="st0" width="39.7" height="39.7"/>
<rect x="254.3" y="157.3" class="st0" width="39.7" height="39.7"/>
<rect x="200.3" y="157.3" class="st0" width="39.7" height="39.7"/>
<rect x="146.3" y="157.3" class="st0" width="39.7" height="39.7"/>
<rect x="308.3" y="103.3" class="st0" width="39.7" height="39.7"/>
<rect x="254.3" y="103.3" class="st0" width="39.7" height="39.7"/>
<rect x="200.3" y="103.3" class="st0" width="39.7" height="39.7"/>
<rect x="146.3" y="103.3" class="st0" width="39.7" height="39.7"/>
<rect x="308.3" y="49.3" class="st0" width="39.7" height="39.7"/>
<rect x="254.3" y="49.3" class="st0" width="39.7" height="39.7"/>
<rect x="200.3" y="49.3" class="st0" width="39.7" height="39.7"/>
<rect x="146.3" y="49.3" class="st0" width="39.7" height="39.7"/>
<path class="st1" d="M60.3,269.5c2.4,0,4.3,1.9,4.3,4.3s-1.9,4.3-4.3,4.3c-2.4,0-4.3-1.9-4.3-4.3S57.9,269.5,60.3,269.5z"/>
<path class="st2" d="M60.3,269.5c2.4,0,4.3,1.9,4.3,4.3s-1.9,4.3-4.3,4.3c-2.4,0-4.3-1.9-4.3-4.3S57.9,269.5,60.3,269.5z"/>
<polyline class="st0" points="83.1,35 83.1,211.3 87.1,211.3 89.7,211.3 89.7,251 129.4,251 129.4,211.3 132,211.3 136,211.3 
	136,35 "/>
<line class="st0" x1="83.1" y1="18" x2="83.1" y2="35"/>
<line class="st0" x1="68.1" y1="18" x2="83.1" y2="18"/>
<polyline class="st0" points="136,18 370.7,18 371.3,18 372.1,18.1 372.7,18.2 373.4,18.4 374,18.5 374.6,18.8 375.2,19 375.7,19.3 
	376.2,19.7 376.8,20 377.3,20.4 377.7,20.9 378.1,21.3 378.4,21.8 378.7,22.3 378.9,22.8 379.1,23.3 379.2,23.9 379.3,24.4 
	379.3,25 379.3,275.4 379.3,275.9 379.2,276.5 379.1,277 378.9,277.5 378.7,278.1 378.4,278.5 378.1,279 377.7,279.5 377.3,279.9 
	376.8,280.3 376.2,280.7 375.7,281 375.2,281.3 374.6,281.6 374,281.8 373.4,282 372.7,282.1 372.1,282.3 371.3,282.3 370.7,282.3 
	60.4,282.3 59.7,282.3 59.1,282.3 58.3,282.1 57.7,282 57.1,281.8 56.5,281.6 55.9,281.3 55.3,281 54.8,280.7 54.3,280.3 
	53.9,279.9 53.4,279.5 53,279 52.7,278.5 52.4,278.1 52.2,277.5 52,277 51.9,276.5 51.8,275.9 51.8,275.4 51.8,25 51.8,24.4 
	51.9,23.9 52,23.3 52.2,22.8 52.4,22.3 52.7,21.8 53,21.3 53.4,20.9 53.9,20.4 54.3,20 54.8,19.7 55.3,19.3 55.9,19 56.5,18.8 
	57.1,18.5 57.7,18.4 58.3,18.2 59.1,18.1 59.7,18 60.4,18 68.1,18 "/>
<line class="st0" x1="136" y1="35" x2="136" y2="18"/>
<path class="st1" d="M60.3,25.8c2.4,0,4.3,1.9,4.3,4.3s-1.9,4.3-4.3,4.3c-2.4,0-4.3-1.9-4.3-4.3S57.9,25.8,60.3,25.8z"/>
<path class="st2" d="M60.3,25.8c2.4,0,4.3,1.9,4.3,4.3s-1.9,4.3-4.3,4.3c-2.4,0-4.3-1.9-4.3-4.3S57.9,25.8,60.3,25.8z"/>
<path class="st1" d="M60.3,141.6c2.4,0,4.3,1.9,4.3,4.3c0,2.4-1.9,4.3-4.3,4.3c-2.4,0-4.3-1.9-4.3-4.3S57.9,141.6,60.3,141.6z"/>
<path class="st2" d="M60.3,141.6c2.4,0,4.3,1.9,4.3,4.3c0,2.4-1.9,4.3-4.3,4.3c-2.4,0-4.3-1.9-4.3-4.3S57.9,141.6,60.3,141.6z"/>
<path class="st1" d="M370.8,24c2.4,0,4.3,1.9,4.3,4.3s-1.9,4.3-4.3,4.3s-4.3-1.9-4.3-4.3S368.4,24,370.8,24z"/>
<path class="st2" d="M370.8,24c2.4,0,4.3,1.9,4.3,4.3s-1.9,4.3-4.3,4.3s-4.3-1.9-4.3-4.3S368.4,24,370.8,24z"/>
<circle class="st1" cx="370.8" cy="272" r="4.3"/>
<circle class="st2" cx="370.8" cy="272" r="4.3"/>
<path class="st1" d="M370.8,139.8c2.4,0,4.3,1.9,4.3,4.3c0,2.4-1.9,4.3-4.3,4.3s-4.3-1.9-4.3-4.3S368.4,139.8,370.8,139.8z"/>
<path class="st2" d="M370.8,139.8c2.4,0,4.3,1.9,4.3,4.3c0,2.4-1.9,4.3-4.3,4.3s-4.3-1.9-4.3-4.3S368.4,139.8,370.8,139.8z"/>
<path class="st1" d="M220.1,24c2.4,0,4.3,1.9,4.3,4.3s-1.9,4.3-4.3,4.3c-2.4,0-4.3-1.9-4.3-4.3S217.7,24,220.1,24z"/>
<path class="st2" d="M220.1,24c2.4,0,4.3,1.9,4.3,4.3s-1.9,4.3-4.3,4.3c-2.4,0-4.3-1.9-4.3-4.3S217.7,24,220.1,24z"/>
<path class="st1" d="M220.1,269.5c2.4,0,4.3,1.9,4.3,4.3s-1.9,4.3-4.3,4.3c-2.4,0-4.3-1.9-4.3-4.3S217.7,269.5,220.1,269.5z"/>
<path class="st2" d="M220.1,269.5c2.4,0,4.3,1.9,4.3,4.3s-1.9,4.3-4.3,4.3c-2.4,0-4.3-1.9-4.3-4.3S217.7,269.5,220.1,269.5z"/>
</svg>
